<svg width="179" height="40" viewBox="0 0 179 40" fill="none" xmlns="http://www.w3.org/2000/svg">
<path d="M40 0H0V40H40V0Z" fill="#FF0032"/>
<path d="M40 0H0V40H40V0Z" fill="#FF0032"/>
<path d="M31.9529 10.267C33.8626 10.267 34.8971 9.74213 34.8971 8.05983V7.18504C34.8971 5.59695 33.8626 5.04516 31.9529 5.04516H28.5472V10.267H31.9529ZM25.5872 3.01294H32.1439C35.8519 3.01294 37.889 4.17036 37.889 7.65608C37.889 11.1283 35.8519 12.2992 32.1439 12.2992H25.5872V3.01294Z" fill="white"/>
<path d="M3.07715 3.01294H11.1187C14.0444 3.01294 15.379 4.17683 15.379 6.15677C15.379 8.19022 14.0444 9.35411 11.1187 9.35411H6.25954V12.2438H3.07715V3.01294ZM12.1624 6.35744V5.99623C12.1624 5.39422 11.7175 4.93937 10.6738 4.93937H6.25954V7.42768H10.6738C11.7175 7.42768 12.1624 6.99958 12.1624 6.35744Z" fill="white"/>
<path d="M25.5872 27.5112H37.8256V29.6183H29.2825V31.4742H36.0574V33.5534H29.2825V37.1396H25.5872V27.5112Z" fill="white"/>
<path d="M169.898 14.5086H163.815V11.7177H179V14.5086H172.918V28.61H169.898V14.5086Z" fill="white"/>
<path d="M144.513 11.7177H153.973C157.338 11.7177 159.151 13.6027 159.151 16.9567C159.151 19.6252 158.059 21.3389 156.005 21.9754L159.697 28.61H156.289L152.771 22.2692H147.571V28.61H144.513V11.7177ZM156.071 17.2995V16.6874C156.071 15.243 155.371 14.2882 153.558 14.2882H147.571V19.6742H153.558C155.35 19.6742 156.071 18.7194 156.071 17.2995Z" fill="white"/>
<path d="M125.21 11.4785H140.293V14.147H128.777V18.4558H137.643V21.0263H128.777V25.7023H140.395V28.3708H125.21V11.4785Z" fill="white"/>
<path d="M118.562 11.4785H121.092L115.302 28.3708H111.679L105.908 11.4785H108.784L113.653 25.8982L118.562 11.4785Z" fill="white"/>
<path d="M97.6742 28.61L89.3995 15.0227V28.61H86.6052V11.7177H90.7426L98.9956 25.2805V11.7177H101.79V28.61H97.6742Z" fill="white"/>
<path d="M79.8698 20.4898V18.81C79.8698 15.2139 78.1991 13.8181 74.8948 13.8181C71.572 13.8181 69.9199 15.2139 69.9199 18.81V20.4898C69.9199 24.1332 71.572 25.5528 74.8948 25.5528C78.1991 25.5528 79.8698 24.1569 79.8698 20.4898ZM67.3025 19.6144C67.3025 13.4159 69.9385 11.2393 74.8948 11.2393C79.8512 11.2393 82.4872 13.4159 82.4872 19.6144C82.4872 25.9076 79.8512 28.1316 74.8948 28.1316C69.9385 28.1316 67.3025 25.9076 67.3025 19.6144Z" fill="white"/>
<path d="M48 19.4698C48 13.2712 50.8218 11 55.775 11C60.2411 11 62.7584 12.5615 63.1644 16.5834H60.302C59.9366 14.2412 58.4547 13.5788 55.775 13.5788C52.7909 13.5788 50.8624 14.7381 50.8624 18.5944V20.2505C50.8624 24.0359 52.7503 25.3135 55.775 25.3135C58.3532 25.3135 59.8554 24.7457 60.3223 22.4981H63.1847C62.6772 26.3545 60.2005 27.8923 55.775 27.8923C50.8218 27.8923 48 25.692 48 19.4698Z" fill="white"/>
</svg>
