<svg width="178" height="40" viewBox="0 0 178 40" fill="none" xmlns="http://www.w3.org/2000/svg">
<path d="M144.059 13H153.481C156.722 13 158.554 14.9907 158.554 18.6658C158.554 21.3967 157.588 23.1832 155.837 23.9999L158.957 30.61H154.81L151.931 24.4848H147.804V30.61H144.059V13ZM154.77 18.9721V18.4617C154.77 17.2621 154.266 16.4965 152.917 16.4965H147.804V20.9373H152.917C154.246 20.9373 154.77 20.1716 154.77 18.9721Z" fill="black"/>
<path d="M117.994 13H121.08L115.848 30.61H111.379L106.182 13H109.712L113.826 27.139L117.994 13Z" fill="black"/>
<path d="M96.3078 30.61L89.8381 17.7215V30.61H86.4548V13H91.5L97.9697 25.8885V13H101.353V30.61H96.3078Z" fill="black"/>
<path d="M78.3514 22.6634V20.873C78.3514 17.6355 76.9482 16.5318 74.1765 16.5318C71.4047 16.5318 69.9842 17.6355 69.9842 20.873V22.6634C69.9842 26.0726 71.4047 27.0782 74.1765 27.0782C76.9482 27.0782 78.3514 26.0971 78.3514 22.6634ZM66.7274 21.7069C66.7274 15.1338 69.3779 13 74.1765 13C78.9751 13 81.6256 15.1338 81.6256 21.7069C81.6256 28.4517 78.9751 30.61 74.1765 30.61C69.3779 30.61 66.7274 28.4517 66.7274 21.7069Z" fill="black"/>
<path d="M47 21.8295C47 15.2564 49.8064 13 54.5527 13C58.9035 13 61.5215 14.6187 61.8793 19.2052H58.3384C58.0371 17.0469 56.7563 16.5318 54.5527 16.5318C52.1983 16.5318 50.5409 17.3167 50.5409 20.8485V22.7861C50.5409 26.2198 52.1418 27.0782 54.5715 27.0782C56.6621 27.0782 57.9806 26.5877 58.3573 24.5765H61.8982C61.4838 28.9422 58.8846 30.61 54.5527 30.61C49.8064 30.61 47 28.4762 47 21.8295Z" fill="black"/>
<path d="M163.788 15.9105V13H178V15.9105H172.307V30.61H169.48V15.9105H163.786H163.788Z" fill="black"/>
<path d="M125 13H139.8V15.7819H128.5V20.2737H137.2V22.9535H128.5V27.8281H139.9V30.61H125V13Z" fill="black"/>
<path d="M40 0H0V40H40V0Z" fill="#FF0032"/>
<path d="M40 0H0V40H40V0Z" fill="#FF0032"/>
<path d="M31.9529 10.2669C33.8626 10.2669 34.897 9.74207 34.897 8.05977V7.18498C34.897 5.59689 33.8626 5.04509 31.9529 5.04509H28.5472V10.2669H31.9529ZM25.5871 3.01288H32.1438C35.8519 3.01288 37.8889 4.1703 37.8889 7.65602C37.8889 11.1283 35.8519 12.2992 32.1438 12.2992H25.5871V3.01288Z" fill="white"/>
<path d="M3.07709 3.01288H11.1186C14.0444 3.01288 15.3789 4.17676 15.3789 6.15671C15.3789 8.19016 14.0444 9.35405 11.1186 9.35405H6.25948V12.2437H3.07709V3.01288ZM12.1623 6.35738V5.99617C12.1623 5.39416 11.7174 4.93931 10.6738 4.93931H6.25948V7.42762H10.6738C11.7174 7.42762 12.1623 6.99952 12.1623 6.35738Z" fill="white"/>
<path d="M25.5871 27.5113H37.8255V29.6184H29.2825V31.4743H36.0573V33.5534H29.2825V37.1396H25.5871V27.5113Z" fill="white"/>
</svg>
